<svg xmlns="http://www.w3.org/2000/svg" xmlns:xlink="http://www.w3.org/1999/xlink" width="489" height="150" viewBox="0 0 489 150">
  <defs>
    <clipPath id="clip-path">
      <rect id="Rechteck_816" data-name="Rechteck 816" width="484.525" height="134.993" fill="none"/>
    </clipPath>
    <clipPath id="clip-Logo-01">
      <rect width="489" height="150"/>
    </clipPath>
  </defs>
  <g id="Logo-01" clip-path="url(#clip-Logo-01)">
    <g id="Gruppe_maskieren_1" data-name="Gruppe maskieren 1" transform="translate(0 7.504)" clip-path="url(#clip-path)">
      <path id="Pfad_7727" data-name="Pfad 7727" d="M105.39,89.684a65.781,65.781,0,0,0,123.088,0m3.775-15.2A65.834,65.834,0,0,0,102.295,53.8l-.088.654" transform="translate(230.416 1.127)" fill="none" stroke="#f5bf46" stroke-linecap="round" stroke-miterlimit="10" stroke-width="4"/>
      <path id="Pfad_7728" data-name="Pfad 7728" d="M139.513,23.219l-19.4,19.792h19.4V51.6h-30.43V43.01l30.43-30.424Z" transform="translate(245.917 30.586)" fill="#161615"/>
      <path id="Pfad_7729" data-name="Pfad 7729" d="M146.446,8.541H134.31L118.126,24.9V35.533l18.387-18.4V54.343H118.126v8.585h18.387V79.695h9.932V62.928h14.345V54.343H146.446Z" transform="translate(266.304 19.254)" fill="#161615"/>
      <path id="Pfad_7730" data-name="Pfad 7730" d="M7.224,36.742H28.154V31.008H7.224V19.048H41.36V13.317H0v42.86H41.607V50.444H7.224Z" transform="translate(-0.001 30.022)" fill="#161615"/>
      <path id="Pfad_7731" data-name="Pfad 7731" d="M58.683,36.99c0,2.493.247,4.732.247,6.229.251,1.491.251,2.737.5,4.231a32.251,32.251,0,0,0-2.49-2.988,23.956,23.956,0,0,0-2.493-2.49L22.553,13.317H18.068V56.174h6.476v-30.4c-.247-1.494-.247-2.737-.495-4.234a14.181,14.181,0,0,0,3.736,4.234l.749.749L61.42,56.174h3.99V13.317H58.683Z" transform="translate(40.733 30.021)" fill="#161615"/>
      <path id="Pfad_7732" data-name="Pfad 7732" d="M46.656,36.742H67.334V31.008H46.656V19.048H80.791V13.317H39.428v42.86H81.039V50.444H46.656Z" transform="translate(88.886 30.022)" fill="#161615"/>
      <path id="Pfad_7733" data-name="Pfad 7733" d="M92.053,39.482c3.245,0,5.484-.5,6.977-1.995,1.5-1.246,1.995-3.238,1.995-6.229V21.791c0-2.991-.5-5.236-1.995-6.48s-3.733-1.995-6.977-1.995H57.42V56.174h7.228V39.482H77.356l1.992,1.992L94.8,56.174H105.26L85.824,39.482ZM64.648,34V19.048H89.316c1.741,0,2.988.251,3.485,1,.749.5,1,1.748,1,3.241v6.229c0,1.744-.254,2.743-1,3.489-.5.749-1.744,1-3.485,1H64.648Z" transform="translate(129.448 30.021)" fill="#161615"/>
      <path id="Pfad_7734" data-name="Pfad 7734" d="M114.585,13.318h-27.9c-3.739,0-6.476.745-7.97,2.242-1.253,1.5-2,3.987-2,7.973V46.207c0,3.733.745,6.48,2,7.973,1.494,1.246,4.231,1.988,7.97,1.988h27.9c3.733,0,6.476-.742,7.973-1.988,1.243-1.494,1.995-4.24,1.995-7.973V32.255H100.139v5.48h17.186V50.187H83.939V19.3h33.387v6.229l7.228-1.494v-1c0-3.736-.752-6.229-1.995-7.475-1.5-1.5-4.24-2.242-7.973-2.242" transform="translate(172.944 30.023)" fill="#161615"/>
      <path id="Pfad_7735" data-name="Pfad 7735" d="M120.183,32.5,103.244,13.317H94.519L116.2,37.487v18.69h7.225V37.487l21.427-24.17H136.13Z" transform="translate(213.084 30.021)" fill="#161615"/>
      <path id="Pfad_7736" data-name="Pfad 7736" d="M173.322,13.318V50.2h-31.4V13.318h-6.974V46.2c0,3.743.495,6.476,1.992,7.977,1.5,1.246,3.99,1.995,7.973,1.995h25.417c3.73,0,6.473-.749,7.973-1.995,1.24-1.5,1.992-4.234,1.992-7.977V13.318Z" transform="translate(304.229 30.023)" fill="#161615"/>
    </g>
  </g>
</svg>
