<?xml version="1.0" encoding="UTF-8" standalone="no"?>
<!-- Created with Inkscape (http://www.inkscape.org/) -->

<svg
   width="99.865173mm"
   height="94.394547mm"
   viewBox="0 0 99.865173 94.394547"
   version="1.1"
   id="svg1"
   xml:space="preserve"
   xmlns:xlink="http://www.w3.org/1999/xlink"
   xmlns="http://www.w3.org/2000/svg"
   xmlns:svg="http://www.w3.org/2000/svg"><defs
     id="defs1"><linearGradient
       id="linearGradient161"><stop
         style="stop-color:#ffffff;stop-opacity:0.05229592;"
         offset="0"
         id="stop161" /><stop
         style="stop-color:#000000;stop-opacity:0;"
         offset="0.30413496"
         id="stop163" /><stop
         style="stop-color:#000000;stop-opacity:0.06127764;"
         offset="0.55452043"
         id="stop162" /></linearGradient><linearGradient
       id="linearGradient159"><stop
         style="stop-color:#f9f9f9;stop-opacity:1;"
         offset="0"
         id="stop159" /><stop
         style="stop-color:#e5e5e5;stop-opacity:1;"
         offset="1"
         id="stop160" /></linearGradient><linearGradient
       id="linearGradient102"><stop
         style="stop-color:#000000;stop-opacity:0.72046503;"
         offset="0.24421772"
         id="stop102" /><stop
         style="stop-color:#2f052a;stop-opacity:0;"
         offset="0.52129418"
         id="stop104" /><stop
         style="stop-color:#5e0b55;stop-opacity:0;"
         offset="1"
         id="stop103" /></linearGradient><linearGradient
       id="linearGradient99"><stop
         style="stop-color:#ffffff;stop-opacity:0.921875;"
         offset="0"
         id="stop100" /><stop
         style="stop-color:#ffffff;stop-opacity:0.55362457;"
         offset="1"
         id="stop101" /></linearGradient><pattern
       xlink:href="#pattern87"
       preserveAspectRatio="xMidYMid"
       id="pattern88"
       patternTransform="matrix(9,0,0,9,-5.8816864,-87.953185)"
       x="-0.34999999"
       y="0" /><pattern
       patternUnits="userSpaceOnUse"
       width="2"
       height="10"
       patternTransform="translate(0,0) scale(2,2)"
       preserveAspectRatio="xMidYMid"
       id="pattern87"
       style="fill:#009678">
      <rect
   style="stroke:none"
   x="0"
   y="-0.5"
   width="1"
   height="11"
   id="rect86" />
    </pattern><linearGradient
       id="linearGradient61"><stop
         style="stop-color:#5e0b55;stop-opacity:1;"
         offset="0"
         id="stop62" /><stop
         style="stop-color:#90004c;stop-opacity:1;"
         offset="0.16292202"
         id="stop98" /><stop
         style="stop-color:#ef0045;stop-opacity:1;"
         offset="0.80803132"
         id="stop99" /><stop
         style="stop-color:#e80745;stop-opacity:1;"
         offset="1"
         id="stop64" /></linearGradient><linearGradient
       xlink:href="#linearGradient61"
       id="linearGradient63"
       x1="110.9434"
       y1="182.18652"
       x2="93.446312"
       y2="125.59396"
       gradientUnits="userSpaceOnUse"
       gradientTransform="translate(-5.8816864,-87.953185)" /><filter
       style="color-interpolation-filters:sRGB"
       id="filter85"
       x="-0.0071631186"
       y="-0.036951292"
       width="1.0143262"
       height="1.0739026"><feGaussianBlur
         stdDeviation="0.28747403"
         id="feGaussianBlur85" /></filter><filter
       style="color-interpolation-filters:sRGB"
       id="filter88"
       x="-0.020279313"
       y="-0.076185605"
       width="1.035048"
       height="1.1524874"><feGaussianBlur
         stdDeviation="0.071868511"
         id="feGaussianBlur88" /></filter><linearGradient
       xlink:href="#linearGradient99"
       id="linearGradient101"
       x1="61.002281"
       y1="188.39307"
       x2="146.96577"
       y2="188.39307"
       gradientUnits="userSpaceOnUse"
       gradientTransform="translate(-1.0764472,-115.7819)" /><filter
       style="color-interpolation-filters:sRGB"
       id="filter101"
       x="-0.0081851"
       y="-0.0097402802"
       width="1.0163702"
       height="1.0194806"><feGaussianBlur
         stdDeviation="0.29317496"
         id="feGaussianBlur101" /></filter><linearGradient
       xlink:href="#linearGradient102"
       id="linearGradient103"
       x1="105.27115"
       y1="154.13899"
       x2="105.2857"
       y2="160.59995"
       gradientUnits="userSpaceOnUse"
       gradientTransform="matrix(1.0252428,0,0,0.99906408,-2.5717141,0.3162833)" /><linearGradient
       xlink:href="#linearGradient159"
       id="linearGradient160"
       x1="70.992134"
       y1="186.02953"
       x2="137.68607"
       y2="186.02953"
       gradientUnits="userSpaceOnUse"
       gradientTransform="translate(-1.017381,-115.64231)" /><filter
       style="color-interpolation-filters:sRGB"
       id="filter88-9"
       x="-0.02133302"
       y="-0.066947782"
       width="1.036105"
       height="1.1340118"><feGaussianBlur
         stdDeviation="0.072 0"
         id="feGaussianBlur88-1" /></filter><linearGradient
       xlink:href="#linearGradient161"
       id="linearGradient162"
       x1="104.31924"
       y1="145.60559"
       x2="104.2593"
       y2="156.3465"
       gradientUnits="userSpaceOnUse"
       gradientTransform="translate(-0.58495119,-119.92503)" /><filter
       style="color-interpolation-filters:sRGB"
       id="filter163"
       x="-0.020837548"
       y="-5.944846"
       width="1.0416751"
       height="12.889692"><feGaussianBlur
         stdDeviation="0.62444526"
         id="feGaussianBlur163" /></filter><filter
       style="color-interpolation-filters:sRGB"
       id="filter174"
       x="-0.0028900882"
       y="-0.0036987638"
       width="1.0057802"
       height="1.0073975"><feGaussianBlur
         stdDeviation="0.092222414"
         id="feGaussianBlur174" /></filter></defs><g
     id="layer4"
     transform="translate(-53.437397,-17.162609)"><path
       id="path3"
       style="fill:url(#linearGradient63);fill-rule:nonzero;stroke:#000000;stroke-width:2.5;stroke-linecap:round;stroke-linejoin:round;stroke-dasharray:none;stroke-opacity:1;paint-order:normal"
       d="m 79.233532,34.951452 -16.645496,2.18126 -0.164331,3.86023 c -0.119225,2.80046 -3.561023,5.28957 -3.561023,7.74682 0,2.45728 0.03152,52.930128 0.03152,54.352748 0,1.42263 -1.290216,7.44729 8.147823,7.20835 20.434087,-0.51732 8.311844,-2.0314 36.764685,-2.0314 29.48716,-10e-6 18.75538,1.8199 33.75762,1.94923 8.92435,0.0769 9.17016,-4.63627 9.19789,-6.45128 0.51082,-33.452278 0.20555,-51.535668 0.33487,-54.122278 0.12934,-2.58659 -3.36297,-4.52655 -3.4923,-7.24245 -0.12934,-2.71594 -0.0264,-5.46065 -0.0264,-5.46065 l -8.57571,-1.66036 z" /><g
       id="g174"
       style="opacity:0.753;filter:url(#filter174)"
       transform="translate(-1.017381,-115.64231)"><ellipse
         style="fill:#f9f9f9;fill-opacity:1;fill-rule:nonzero;stroke:none;stroke-width:2.96799;stroke-linecap:butt;stroke-linejoin:bevel;stroke-dasharray:none;stroke-opacity:1;paint-order:normal"
         id="path163"
         cx="136.87251"
         cy="212.59163"
         rx="2.4586709"
         ry="2.7977979" /><ellipse
         style="fill:#f9f9f9;fill-opacity:1;fill-rule:nonzero;stroke:none;stroke-width:2.96799;stroke-linecap:butt;stroke-linejoin:bevel;stroke-dasharray:none;stroke-opacity:1;paint-order:normal"
         id="path164"
         cx="77.043518"
         cy="171.1301"
         rx="1.7804167"
         ry="1.6956351" /><ellipse
         style="fill:#f9f9f9;fill-opacity:1;fill-rule:nonzero;stroke:none;stroke-width:2.96799;stroke-linecap:butt;stroke-linejoin:bevel;stroke-dasharray:none;stroke-opacity:1;paint-order:normal"
         id="path165"
         cx="92.415176"
         cy="164.18134"
         rx="0.339127"
         ry="0.5934723" /><ellipse
         style="fill:#f9f9f9;fill-opacity:1;fill-rule:nonzero;stroke:none;stroke-width:2.96799;stroke-linecap:butt;stroke-linejoin:bevel;stroke-dasharray:none;stroke-opacity:1;paint-order:normal"
         id="path165-9"
         cx="73.667633"
         cy="219.35019"
         rx="0.339127"
         ry="0.5934723" /><ellipse
         style="fill:#f9f9f9;fill-opacity:1;fill-rule:nonzero;stroke:none;stroke-width:2.96799;stroke-linecap:butt;stroke-linejoin:bevel;stroke-dasharray:none;stroke-opacity:1;paint-order:normal"
         id="path166"
         cx="100.89062"
         cy="193.84311"
         rx="1.1021628"
         ry="1.1869446" /><ellipse
         style="fill:#f9f9f9;fill-opacity:1;fill-rule:nonzero;stroke:none;stroke-width:2.96799;stroke-linecap:butt;stroke-linejoin:bevel;stroke-dasharray:none;stroke-opacity:1;paint-order:normal"
         id="path167"
         cx="128.36154"
         cy="160.86676"
         rx="0.67825401"
         ry="0.76303577" /><ellipse
         style="fill:#f9f9f9;fill-opacity:1;fill-rule:nonzero;stroke:none;stroke-width:2.96799;stroke-linecap:butt;stroke-linejoin:bevel;stroke-dasharray:none;stroke-opacity:1;paint-order:normal"
         id="path168"
         cx="113.60563"
         cy="162.14514"
         rx="1.6956351"
         ry="1.7804167" /><ellipse
         style="fill:#f9f9f9;fill-opacity:1;fill-rule:nonzero;stroke:none;stroke-width:2.96799;stroke-linecap:butt;stroke-linejoin:bevel;stroke-dasharray:none;stroke-opacity:1;paint-order:normal"
         id="path169"
         cx="142.1132"
         cy="192.08299"
         rx="1.1869446"
         ry="1.2717263" /><circle
         style="fill:#f9f9f9;fill-opacity:1;fill-rule:nonzero;stroke:none;stroke-width:2.96799;stroke-linecap:butt;stroke-linejoin:bevel;stroke-dasharray:none;stroke-opacity:1;paint-order:normal"
         id="path170"
         cx="68.782227"
         cy="182.23567"
         r="0.93259925" /><circle
         style="fill:#f9f9f9;fill-opacity:1;fill-rule:nonzero;stroke:none;stroke-width:2.96799;stroke-linecap:butt;stroke-linejoin:bevel;stroke-dasharray:none;stroke-opacity:1;paint-order:normal"
         id="path171"
         cx="77.255005"
         cy="203.69394"
         r="1.5260715" /><ellipse
         style="fill:#f9f9f9;fill-opacity:1;fill-rule:nonzero;stroke:none;stroke-width:2.96799;stroke-linecap:butt;stroke-linejoin:bevel;stroke-dasharray:none;stroke-opacity:1;paint-order:normal"
         id="path172"
         cx="106.33636"
         cy="210.6575"
         rx="1.1021628"
         ry="1.1869446" /><ellipse
         style="fill:#f9f9f9;fill-opacity:1;fill-rule:nonzero;stroke:none;stroke-width:2.96799;stroke-linecap:butt;stroke-linejoin:bevel;stroke-dasharray:none;stroke-opacity:1;paint-order:normal"
         id="path173"
         cx="113.79283"
         cy="214.99945"
         rx="1.1869446"
         ry="1.017381" /><ellipse
         style="fill:#f9f9f9;fill-opacity:1;fill-rule:nonzero;stroke:none;stroke-width:2.96799;stroke-linecap:butt;stroke-linejoin:bevel;stroke-dasharray:none;stroke-opacity:1;paint-order:normal"
         id="path174"
         cx="68.75116"
         cy="209.2775"
         rx="2.0347619"
         ry="1.8651985" /></g><path
       style="mix-blend-mode:normal;fill:url(#linearGradient101);fill-opacity:0.949846;stroke:none;stroke-linejoin:bevel;filter:url(#filter101)"
       d="m 139.259,39.860172 c 0,0 0.30459,-0.31488 0.44283,2.59022 0.13607,2.85808 1.84214,4.79174 2.62304,5.81836 0.36701,0.48248 0.61377,0.90018 0.76368,1.18554 0.0511,0.0972 0.0762,0.15364 0.10547,0.2168 -0.0824,1.9136 -0.0276,6.51758 -0.0312,15.32617 -0.004,9.01268 -0.0555,21.87428 -0.31055,38.578128 -0.0116,0.76205 -0.0701,1.17277 -0.35352,1.50781 -0.33509,0.39614 -1.14624,1.18521 -4.96093,1.15234 -7.34604,-0.0634 -7.7127,-0.45984 -10.85743,-0.9746 -3.14948,-0.51555 -8.11075,-0.97461 -22.93359,-0.97461 -14.295382,0 -18.681272,0.39116 -21.935552,0.85937 -3.24962,0.46755 -4.82147,0.91602 -14.92773,1.17188 -1.97923,0.0501 -3.08128,-0.22662 -3.54297,-0.4336 -0.53185,-0.23843 -0.39448,-0.16532 -0.55274,-0.4707 -0.0461,-0.0889 -0.14457,-0.43698 -0.1582,-0.82813 -0.013,-0.37237 0.0547,-0.86493 0.0547,-1.62695 0,-1.47011 -0.0309,-51.103648 -0.0312,-54.046868 0.1929,-0.51441 0.6075,-1.20274 1.06641,-1.87891 0.82525,-1.20574 2.37256,-3.19977 2.49218,-6.00977 l -0.0959,-1.45462 7.47927,0.0175 -0.23451,-2.75724 -9.60289,1.18512 -0.24523,2.89378 c -0.0797,1.87274 -1.12868,3.29282 -2.02539,4.60352 l -0.002,0.004 c -0.49411,0.72803 -1.11572,1.60597 -1.46485,2.67188 l -0.0664,0.41992 c 0,2.44751 0.0312,52.911718 0.0312,54.351558 0,0.56374 -0.0784,1.04115 -0.0547,1.7207 0.0234,0.67066 0.12521,1.33249 0.45899,1.97657 0.27177,0.52442 0.89944,1.26718 1.8457,1.6914 1.01641,0.45566 2.47574,0.72664 4.7168,0.66992 10.18168,-0.25776 12.11184,-0.74687 15.24219,-1.19726 3.12876,-0.45015 7.3061,-0.83203 21.552732,-0.83203 14.76723,0 19.5389,0.45538 22.49609,0.93945 2.9587,0.48432 3.8224,0.94552 11.27149,1.00977 4.24522,0.0366 6.17506,-1.07874 7.04687,-2.10938 0.90376,-1.0685 0.97686,-2.33253 0.99024,-3.21094 0.25527,-16.719468 0.30655,-29.595378 0.31054,-38.617178 0.004,-9.02249 -0.0473,-14.05326 0.0274,-15.54493 0,-9e-5 -0.0175,-0.30059 -0.0176,-0.30078 -4e-5,-1.9e-4 -0.0146,-0.0718 -0.0195,-0.0918 -0.01,-0.0399 -0.0149,-0.057 -0.0195,-0.0723 -0.009,-0.0305 -0.0146,-0.0465 -0.0195,-0.0606 -0.01,-0.0281 -0.0183,-0.047 -0.0273,-0.0703 -0.018,-0.0466 -0.0388,-0.10061 -0.0664,-0.16406 -0.0552,-0.1269 -0.13382,-0.29352 -0.24024,-0.49609 -0.21283,-0.40516 -0.5381,-0.94952 -1.00586,-1.56446 -0.89091,-1.17124 -1.98818,-2.46253 -2.07617,-4.31054 -0.13382,-2.81138 -0.26248,-4.41643 -0.26248,-4.41643 l -6.00716,-1.12084 2.02921,2.36417"
       id="path3-7" /><path
       style="mix-blend-mode:normal;fill:none;stroke:url(#linearGradient103);stroke-width:3.00382;stroke-linecap:butt;stroke-dasharray:none;filter:url(#filter163)"
       d="m 67.388895,156.68194 72.423845,0.50473"
       id="path5"
       transform="matrix(0.99044715,0,0,1.0003549,0.33200079,-115.69801)" /></g><g
     id="layer2"
     style="display:inline"
     transform="translate(-53.437397,-17.162609)"><path
       style="mix-blend-mode:normal;fill:#f7f7f7;fill-opacity:0.949846;stroke:none;stroke-width:2.5;stroke-dasharray:none;stroke-opacity:1;filter:url(#filter85)"
       d="m 56.518144,20.615562 c 0,0 26.337574,-2.46915 47.553936,-2.65205 21.21637,-0.1829 47.73684,1.6461 47.82828,2.5606 0.0915,0.91449 0.36579,14.63198 0.0915,15.82083 -0.27435,1.18885 -9.69369,-1.82899 -16.73533,-1.82901 -5.39553,-0.0914 -52.675122,-0.18289 -58.345012,-0.0915 -5.944244,0.0914 -21.033473,3.56654 -20.942025,1.46321 0.09145,-2.10336 -0.7316,-15.3636 0.548698,-15.27215 z"
       id="path6-1" /><path
       style="mix-blend-mode:normal;fill:url(#linearGradient162);fill-opacity:1;stroke:#000000;stroke-width:2.5;stroke-dasharray:none;stroke-opacity:1;filter:url(#filter88-9)"
       d="m 56.217711,21.564542 c 0,0 26.33757,-2.46915 47.553939,-2.65205 21.21637,-0.1829 47.73684,1.6461 47.82828,2.5606 0.0915,0.91449 0.36579,14.63198 0.0915,15.82083 -0.27435,1.18885 -9.69369,-1.82899 -16.73533,-1.82901 -5.39553,-0.0914 -52.675129,-0.18289 -58.345009,-0.0915 -5.94425,0.0914 -21.03348,3.56654 -20.94203,1.46321 0.0915,-2.10336 -0.7316,-15.3636 0.5487,-15.27215 z"
       id="path6-7" /><path
       style="mix-blend-mode:normal;fill:url(#pattern88);fill-opacity:1;stroke:#000000;stroke-width:2.5;stroke-dasharray:none;stroke-opacity:1;filter:url(#filter88)"
       d="m 56.287595,21.249922 c 0,0 26.33757,-2.46915 47.553945,-2.65205 21.21637,-0.1829 47.73684,1.6461 47.82828,2.5606 0.0915,0.91449 0.36579,14.63198 0.0915,15.82083 -0.27435,1.18885 -9.69369,-1.82899 -16.73533,-1.82901 -5.39553,-0.0914 -52.675134,-0.18289 -58.345021,-0.0915 -5.944244,0.0914 -21.033473,3.56654 -20.942025,1.46321 0.09145,-2.10336 -0.7316,-15.3636 0.548698,-15.27215 z"
       id="path6" /></g><g
     id="layer3"
     style="display:inline"
     transform="translate(-53.437397,-17.162609)"><path
       style="display:inline;fill:url(#linearGradient160);fill-opacity:1;fill-rule:nonzero;stroke:none;stroke-width:2.968;stroke-linecap:round;stroke-linejoin:bevel;stroke-dasharray:none;stroke-opacity:1;paint-order:normal"
       d="m 75.937778,50.035552 c 0,0 53.175442,-0.23979 55.033872,-0.11988 1.85844,0.11988 5.42478,2.93678 5.45542,4.67608 0.15116,8.58022 0.25682,28.71381 0.23982,29.49528 -0.06,2.75767 -3.13239,6.59446 -5.93503,6.65441 -1.49961,0.0321 -51.799292,0.22488 -53.175442,0.1199 -3.53703,-0.26982 -7.48972,-3.29732 -7.55367,-5.75516 -0.12318,-4.7347 0.19377,-27.60737 0.29975,-29.37539 0.10402,-1.73543 3.61818,-5.52566 5.63528,-5.69524 z"
       id="path104" /><g
       id="g64"
       transform="translate(-6.6658259,-91.001902)"><text
         xml:space="preserve"
         style="font-style:normal;font-variant:normal;font-weight:bold;font-stretch:normal;font-size:25.4px;font-family:FreeSans;-inkscape-font-specification:'FreeSans Bold';text-align:start;writing-mode:lr-tb;direction:ltr;text-anchor:start;fill:#000000;stroke-width:0.165"
         x="86.647995"
         y="165.18315"
         id="text1"><tspan
           id="tspan1"
           style="font-style:normal;font-variant:normal;font-weight:bold;font-stretch:normal;font-size:25.4px;font-family:'URW Bookman';-inkscape-font-specification:'URW Bookman Bold';stroke-width:0.165"
           x="86.647995"
           y="165.18315">KIT</tspan></text><text
         xml:space="preserve"
         style="font-style:normal;font-variant:normal;font-weight:normal;font-stretch:normal;font-size:11.1117px;font-family:'Raster Forge';-inkscape-font-specification:'Raster Forge';text-align:start;writing-mode:lr-tb;direction:ltr;text-anchor:start;fill:#000000;stroke-width:0.194021"
         x="90.647224"
         y="158.09953"
         id="text2"
         transform="scale(0.89960475,1.1115993)"><tspan
           id="tspan2"
           style="font-style:normal;font-variant:normal;font-weight:bold;font-stretch:normal;font-size:11.1117px;font-family:'URW Bookman';-inkscape-font-specification:'URW Bookman Bold';stroke-width:0.194021"
           x="90.647224"
           y="158.09953">GAME JAM</tspan></text></g></g></svg>
